<?xml version="1.0" encoding="utf-8"?>
<!-- Generator: Adobe Illustrator 18.1.0, SVG Export Plug-In . SVG Version: 6.00 Build 0)  -->
<!DOCTYPE svg PUBLIC "-//W3C//DTD SVG 1.1//EN" "http://www.w3.org/Graphics/SVG/1.1/DTD/svg11.dtd">
<svg version="1.1" id="Untitled-1.fw-Page_x25_201" xmlns="http://www.w3.org/2000/svg" xmlns:xlink="http://www.w3.org/1999/xlink"
	 x="0px" y="0px" viewBox="-972.5 490.5 100 100" enable-background="new -972.5 490.5 100 100" xml:space="preserve">
<path fill="none" d="z"/>
<g id="Layer_x25_201">
	<path fill="#DE525B" d="M-888.4,590.5c-0.3,0-0.6,0-0.9-0.1c-2.5-0.3-3.9-1.8-4-1.9c0,0,0,0,0-0.1l-0.1-0.2l-1-0.5
		c-0.1,0-0.1-0.1-0.1-0.2c0,0,0-0.2-0.1-0.5c-0.1-1,0-2.4,0.5-3c-0.5-0.8-0.4-1.7-0.3-2.4c0-0.1,0-0.3,0.1-0.4
		c0.1-1.1-1.4-6-2.2-7.6c-0.8-1.6-4.4-7.4-4.5-7.5c0,0,0-0.1,0-0.2c0.1-0.3,0.2-0.8,0.5-1.3c-0.2-1.4,0.1-6.6,0.2-6.8c0,0,0,0,0,0
		c-0.6-0.8-1.4-1.8-2.2-2.8c-0.9-1.1-2-2.4-3.1-3.8c0,0,0,0,0-0.1c-0.2,1.1-0.9,4.5-1,7.5c0,0,0,0,0,0c0.1,0.2,2.4,4.6,2.8,7.1
		c0.1,0,0.1,0.1,0.1,0.1c0,0,0.5,0.9-0.1,2.2c-0.2,0.5-0.9,1.6-1.6,2.8c-0.9,1.4-1.9,3.1-2.1,3.7c-0.4,1.1-1.3,7.5-1,9.3
		c0,0,0,0.1,0,0.1c0.5,0.8,1,2,0.6,3.2l-0.2,0.5c0,0.1-0.1,0.1-0.2,0.1c0,0-3.4,0.1-4.1,0.2c-0.7,0.1-1.1,0.1-2,0.4
		c-0.6,0.2-2.7,0.3-4.7,0.3c-1,0-2.9,0-3.7-0.3c-0.1,0-0.1-0.1-0.1-0.1l-0.2-0.7c-0.1-0.3-0.2-1.1,0.5-1.5c0.5-0.3,1.1-0.5,1.7-0.7
		c0.3-0.1,0.7-0.2,1-0.3c0.3-0.1,0.6-0.2,1-0.3c0,0,0,0,0,0c0,0,1.7-1.2,2.6-1.8c0.2-0.1,0.6-0.4,1.1-0.5c0-0.1,0-0.2,0-0.3
		c0-0.1,0.1-0.2,0.3-0.4c0-0.3-0.1-1,0.2-1.7c-0.1-0.3-0.3-1.3,0.3-2.4c0-0.3-0.1-1.3,0.1-1.9c-0.1-0.3-0.2-1.4,0.1-2.1
		c-0.1-0.3-0.3-1.1,0.1-2.1c-0.2-0.3-0.6-1.4-0.1-2.4c0-0.1-0.1-0.4-0.1-0.8c0,0,0-0.1,0-0.1l-0.1-2.3c0,0,0-0.1,0-0.1
		c0.2-0.5,0.6-1.3,1.2-2.1c0,0,0,0,0,0c0.1-0.8-0.1-1.4-0.4-2c-0.1-0.2-0.2-0.4-0.2-0.6c0-0.1-0.1-0.3-0.1-0.4
		c-0.2-0.6-0.4-1-0.3-1.4c0-0.1,0-0.1,0-0.2c-0.2-0.3-0.2-0.7-0.2-1.2c0-0.1,0-0.2,0-0.3c0-0.7-0.4-1.4-0.5-1.4c0,0,0,0,0,0
		c0,0,0,0,0-0.1l-0.5,1.5c0,0.1-0.1,0.1-0.2,0.2c0,0,0,0,0,0c-0.1,0-0.2,0-0.2-0.1c-2.7-4.1-8.2-4.3-12.3-4.5
		c-1.6-0.1-2.9-0.1-3.9-0.4c-1-0.3-1.8-0.7-2.3-1.1c-0.6-0.5-0.8-1.2-0.5-1.7c0,0,0,0,0,0c0-0.1,0-0.1,0-0.2l1.6-4.2
		c-0.4,0-0.9-0.1-1.6-0.1c-2.2-0.1-5.8-0.1-11.1-1.6c-7.4-2.1-9.6-9.4-10.6-13c-1-3.5-6.6-7.6-6.6-7.6c-0.1,0-0.1-0.1-0.1-0.2
		c0-0.1,0-0.1,0.1-0.2c4.3-3.9,12-4.8,18.1-5.5c1.6-0.2,3.1-0.4,4.3-0.6c5.7-0.9,12.3-5.7,15-8.5c0.5-0.5,0.9-0.9,1.3-1.3
		c1.7-1.8,3.1-3.4,5.7-3.4c0.1,0,0.3,0,0.4,0c0.5,0,1,0.1,1.5,0.2l0,0c1-0.8,2.3-1,2.3-1.1c0,0,0,0,0.1,0c0,0,0.1,0,0.1,0
		c0.2,0.1,0.4,0.3,0.6,0.4l0.2-0.1c0.4-0.2,0.9-0.4,1.3-0.6c0.1,0,0.1,0,0.2-0.1c0.3-0.1,0.4-0.2,0.4-0.4l0,0c0-0.1,0-0.2,0-0.2
		c0,0-0.2,0-0.2,0c-0.3,0-0.5,0-0.6-0.1c-0.4-0.4-0.7-1.1-0.6-1.8c0.1-0.8,0.1-1.9,0-2.3c0-0.1,0-0.1,0-0.2
		c-0.1-0.4-0.2-0.7,0.2-1.4c0-0.2,0-0.5-0.1-0.6c-0.3-0.4,0.1-1,0.2-1.2c0.2-0.3,0.4-0.5,0.5-0.7c-0.1-0.4-0.5-1.6,0.3-2
		c0.2-0.1,0.4-0.2,0.6-0.3c0.6-0.3,1.1-0.5,1.2-0.9c0-0.1,0.1-0.1,0.1-0.1c0,0,0.1,0,0.1,0c0,0,0.1,0,0.1,0c0.1,0,0.4,0.2,0.5,0.5
		c0.2-0.1,0.5-0.2,0.8-0.2c0.5,0,1,0.2,1.6,0.5c2.2,1.1,4,2.1,4.3,2.2c0.1,0,0.2,0.1,0.2,0.3c0,0.2-0.2,0.8-0.4,1.1l0.3,0.3
		c0.1,0.1,0.1,0.2,0,0.3l-0.1,0.1l0.1,0.3c0,0.1,0,0.1,0,0.2v0c0,0-0.1,0.1-0.1,0.4c0,0.4-0.1,1.3-0.1,1.3c0,0,0,0.1,0,0.1l-0.2,0.3
		l0,0.4c0,0,0,0.1,0,0.1c-0.1,0.2-0.1,0.4-0.1,0.6c0,0,0,0,0,0c0,0.3-0.1,0.6-0.1,0.8l0,0c0,0.2,0,0.5,0,1.4
		c0.1,0.3,0.2,0.4,0.2,0.4c0.2,0.2,0.3,0.3,0.4,0.3c0.2-0.2,0.5-0.3,0.7-0.4c0,0,0.1,0,0.1,0c0,0,0.1,0,0.1,0l1.5,0.7
		c0.3-0.1,0.6-0.2,0.9-0.3c0,0,0,0,0,0c0,0,0.1,0,0.1,0l1.9,0.9c0.9-0.3,1.6-0.4,2.1-0.5c0,0,0,0,0,0c0.1,0,0.1,0,0.2,0.1
		c0.1,0.1,1,0.8,1.3,1.4c0.4,0,0.8-0.1,1.1-0.1c0.4,0,0.8,0,1.2,0.1c0.9,0.1,1.6,0.4,2,0.9c0.5,0.6,0.6,1.4,0.4,2.4
		c-0.2,1.3-0.9,2.5-1,2.6c0,0,0,0,0,0c0,0.1,0,0.2,0,0.3c0.5,0.3,2.2,1.3,2.4,3.9c0.1,1,0.1,1.7,0.1,2.2c0.6,0.9,1.8,3.1,2.4,3.8
		c0.8,1,2,3.7,2.3,4.4c0.1,0.2,1,1.5,0.1,2.3c-0.5,0.5-2.1,1.4-3.5,2.2c-0.7,0.4-1.3,0.7-1.8,1c-1.1,0.7-4,1.7-6.6,2.1
		c-0.6,1-3.3,5.2-4.6,6.7c0,0,0,0,0,0c0.4,1.4,0.7,2.7,1.1,3.7c0.7,2.3,2.1,7.1,3,10.5c0.6,2.2,1.1,4,1.2,4.3
		c0.1,0.4,0.7,1.3,1.2,2.3c0.5,0.9,1,1.7,1.2,2.1c0.7,0.4,1.5,0.8,1.7,1c0.1,0,0.1,0.1,0.1,0.2l1,19.7c0.1,0.1,0.2,0.1,0.3,0.2
		c0,0,0,0,0,0.1c0.4,0.6,1.4,2.2,1.9,2.5c0.6,0.4,2.5,2.4,2.5,2.4l0,0c0,0,0,0.1,0.1,0.1c0,0,0.2,0.8-0.4,1.2
		C-884.3,589.6-886.3,590.5-888.4,590.5C-888.4,590.5-888.4,590.5-888.4,590.5z"/>
</g>
<path fill="none" d="z"/>
</svg>
